<svg xmlns="http://www.w3.org/2000/svg" viewBox="0 0 1437.62 1437.61"><defs><style>.cls-1{fill:#202d39;}.cls-2{fill:#fff;}</style></defs><g id="Layer_2" data-name="Layer 2"><g id="Layer_1-2" data-name="Layer 1"><path class="cls-1" d="M1437.62,243.88v949.85a243.88,243.88,0,0,1-243.89,243.88H243.88C109.19,1437.61,0,1328.42,0,1193.73V243.88C0,109.19,109.19,0,243.88,0h949.85C1328.43,0,1437.62,109.19,1437.62,243.88Z"/><polygon class="cls-2" points="670.38 399.75 987.9 577.64 936.92 1181.02 606.72 1153.13 670.38 399.75"/><polygon class="cls-2" points="592.85 906.57 573.89 1130.97 431.76 1181.58 362.98 988.42 592.85 906.57"/><polygon class="cls-2" points="616.03 632.36 597.06 856.76 347.72 945.54 278.94 752.39 616.03 632.36"/><polygon class="cls-2" points="638.42 367.4 619.46 591.79 266.51 717.47 197.73 524.32 638.42 367.4"/><path class="cls-2" d="M425.82,367.4,638,292l4.11-48.18A102.52,102.52,0,0,0,548.69,133h0a102.5,102.5,0,0,0-110.85,93.44Z"/><path class="cls-2" d="M1437.62,686.11v507.62a243,243,0,0,1-60.16,160.39l-378.74-84.81,63.66-753.38Z"/></g></g></svg>