<svg xmlns="http://www.w3.org/2000/svg" viewBox="0 0 1437.62 1448.41"><defs><style>.cls-1{fill:#202d39;}.cls-2{fill:#fff;}</style></defs><g id="Layer_2" data-name="Layer 2"><g id="Layer_1-2" data-name="Layer 1"><path class="cls-1" d="M1437.62,243.88v949.85q0,7.89-.49,15.66c-8.08,127.39-114,228.22-243.4,228.22H243.88C109.19,1437.61,0,1328.42,0,1193.73V243.88C0,109.19,109.19,0,243.88,0h949.85C1328.43,0,1437.62,109.19,1437.62,243.88Z"/><path class="cls-2" d="M1437.13,1209.39c-8.08,127.39-114,228.22-243.4,228.22H882.13l43.5-514.79Z"/><polygon class="cls-2" points="835.71 1307.63 824.72 1437.61 470.67 1437.61 835.71 1307.63"/><polygon class="cls-2" points="872.75 869.3 841.38 1240.51 257.5 1448.41 143.72 1128.89 872.75 869.3"/><polygon class="cls-2" points="461.12 94.85 999.2 362.29 985.17 764.59 438.42 745.52 461.12 94.85"/><polygon class="cls-1" points="546.92 397.21 661.9 454.36 658.9 540.32 542.07 536.25 546.92 397.21"/><polygon class="cls-1" points="887.19 397.21 772.22 454.36 775.21 540.32 892.04 536.25 887.19 397.21"/><path class="cls-1" d="M718.81,725.49a126.13,126.13,0,0,1-126-126h67.74a58.25,58.25,0,0,0,116.49,0h67.74A126.13,126.13,0,0,1,718.81,725.49Z"/></g></g></svg>