<svg id="Layer_1" data-name="Layer 1" xmlns="http://www.w3.org/2000/svg" viewBox="0 0 65.07 10.13"><defs><style>.cls-1{fill:#fff;}</style></defs><path class="cls-1" d="M2.94,10l-.27-.1-.32,0-1-.47-.25-.15L.67,8.85.31,8.42.08,7.86l0-.25L0,7.3.1,7l.28-.12H.67l.29,0L2,6.89,2.32,7l.22.28.21.2L3,7.63l.21.1.33.09.43,0h.4l.52-.15.23-.13.23-.2L5.44,7l-.07-.36-.2-.17-.51-.21-.28,0-.26,0L3,6.11,2.44,6l-.81-.27-.5-.29-.4-.37L.37,4.61.19,4.12.08,3.73V2.79L.27,2l.14-.23.1-.25L.7,1.32l.16-.24L1.11.91l.2-.18L1.6.56,1.82.48,2.05.34l.26-.1L3.43,0h.8l.32.07L4.8.1l.3,0,.79.27L6.8,1,7,1.25l.15.22.18.22.23.51.11.55L7.52,3l-.27.17L7,3.15l-.25,0-.94,0L5.34,3l-.47-.49-.21-.17-.31-.11-.92,0-.25.06L3,2.41l-.24.18-.16.2,0,.36v.38l.23.22L3,3.87l.6.21L5,4.26l1.17.28L7,4.87l.24.2.34.43L7.82,6l.08.27,0,.28,0,.87,0,.25L7.8,8l-.12.25-.28.45L7,9.12l-.46.31-.74.39-1.4.27H4l-.42,0Z"/><path class="cls-1" d="M10.6,8.46l0-.27.17-.26.94-.3.14-.3,0-.55-.05-.6.07-.28-.06-.55,0-.28V4.5l0-.33V3.94l0-1.19-.19-.26-.87-.29-.14-.27V1.67l0-.28V1.08l0-.24V.57l.16-.29.31-.14.56,0,.27,0,.87,0,.31,0H15l.46.13.11.28,0,.28,0,.25v.83l-.16.27-.27.15h-.31l-.27.16-.16.25v.59l0,.29,0,.28,0,.27,0,.43,0,.42-.06.59.06.56,0,1.15.16.28.95.29.2.24,0,.86,0,.25v.31l-.16.25-.27.14L11,9.93l-.29-.1-.14-.29Z"/><path class="cls-1" d="M22.57,10.09l-.8-.17L21,9.64l-.26-.13-.91-.6-.4-.41-.51-.63-.16-.26-.3-.77L18.2,5.76l0-.3,0-.39,0-.7.16-.62V3.5l.45-1.06L19,2.17,19.17,2l.14-.23.18-.24.43-.39.71-.48.26-.12L22,.14,22.84,0l1.41.07.32.08.28.05.23.09.31.09,1,.59.42.4.35.45.2.2.46,1-.1.31-.24.09-.27,0h-1.4l-.32-.14-.31-.22L25,2.89l-.71-.44L24,2.38l-.74-.08h-.4l-.56.18-.24.12-.47.32-.37.39L21,3.84,21,4.12l-.16.5L20.9,6l.1.27.16.25.12.24.15.24.43.33.51.27.26.1.26,0,.44,0h.41l.29,0,.54-.17.22-.11.42-.4.11-.22-.05-.24-.2-.15-.86,0-.26,0h-.27l-.27-.12-.08-.24-.06-.27,0-1,.13-.27.44-.15h3.58l.41.13.17.28,0,.28L28,6.12l-.09.28v.27l-.19.6-.33.64L27,8.57,26.53,9l-.47.29-.2.17-1.05.45-.24.07H24.3l-.29.06-.77.07-.37,0Z"/><path class="cls-1" d="M38.22,9.54l-.17-.21-.23-.18-.19-.23L36.25,7.56,36,7.38l-2-2-.19,0-.14.17.05.29,0,3.43,0,.28-.12.28L33.3,10,33,10l-.3,0L32,10l-.48,0-.27-.15-.13-.31V9.25L31,9l0-.53,0-.28V7.58l0-.3V7l0-.31V6.44l0-.25-.06-2,0-.3V3.6l0-.25,0-.58,0-.28,0-2,.18-.26L31.56.1,32,.21l.57.38.77.77.18.24.24.17.15.21.27.18.16.21.44.36L35,3l.15.2.23.16.5.51.21.17.63.63.2,0L37,4.54V4l.05-.3V3.42L37,3.12V.57l.14-.29.35-.14h.28l.26,0,.3,0,.31,0h.27l.29,0,.31.14.17.25,0,.73,0,.42L39.64,2v.56l0,.27,0,.56.06,1.68,0,.3.05.4-.07,3.81-.12.29-.33.16-.37-.12-.42-.18Z"/><path class="cls-1" d="M48.14,8.46l0-.27.17-.26,1-.3.14-.3,0-.55-.06-.6.07-.28-.06-.55,0-.28,0-.57-.05-.33V3.94l0-1.19-.18-.26-.87-.29-.14-.27V1.67l0-.28V1.08l0-.24V.57l.15-.29.32-.14.55,0,.27,0,.87,0,.31,0h1.81L53,.28l.11.28,0,.28,0,.25v.83l-.15.27-.27.15h-.32l-.27.16-.15.25v.59l0,.29,0,.28,0,.27,0,.43L52,5l-.06.59.06.56,0,1.15.15.28,1,.29.2.24L53.19,9l0,.25v.31l-.15.25L52.8,10l-4.24,0-.28-.1-.14-.29Z"/><path class="cls-1" d="M63.57,9.54l-.17-.21-.23-.18L63,8.92,61.6,7.56l-.23-.18-2-2-.19,0L59,5.55l.06.29,0,3.43,0,.28-.13.28-.29.14-.33,0L58,10l-.72,0-.48,0-.27-.15-.13-.31V9.25l0-.29,0-.53,0-.28,0-.57-.05-.3V7l0-.31V6.44l0-.25-.06-2,.05-.3,0-.29,0-.25,0-.58,0-.28,0-2,.18-.26L56.91.1l.39.11.57.38.77.77.18.24.25.17.14.21.27.18.16.21.44.36.3.31.15.2.23.16.5.51.21.17.63.63.2,0,.07-.22V4l.06-.3V3.42l-.06-.3V.57l.14-.29.35-.14h.28l.26,0,.3,0,.31,0h.27l.29,0,.31.14.17.25,0,.73,0,.42L65,2v.56l0,.27,0,.56L65,5.06l0,.3.06.4L65,9.57l-.12.29-.33.16-.37-.12-.42-.18Z"/></svg>